<?xml version="1.0" standalone="no"?>
<!DOCTYPE svg PUBLIC "-//W3C//DTD SVG 20010904//EN"
 "http://www.w3.org/TR/2001/REC-SVG-20010904/DTD/svg10.dtd">
<svg version="1.0" xmlns="http://www.w3.org/2000/svg"
 width="500.000000pt" height="500.000000pt" viewBox="0 0 500.000000 500.000000"
 preserveAspectRatio="xMidYMid meet" id="cash-symbol">

<g transform="translate(0.000000,500.000000) scale(0.100000,-0.100000)"
fill="#000000" stroke="none">
<path d="M81 1148 c0 -19 2 -20 7 -6 5 13 11 15 22 8 8 -5 20 -10 25 -9 11 0
-35 28 -47 29 -5 0 -8 -10 -7 -22z"/>
<path d="M83 1102 c-3 -7 -3 -16 1 -19 3 -4 6 1 6 9 0 10 8 14 25 13 14 -2 25
1 25 6 0 14 -52 6 -57 -9z"/>
<path d="M93 1053 c9 -2 25 -2 35 0 9 3 1 5 -18 5 -19 0 -27 -2 -17 -5z"/>
<path d="M87 1023 c-4 -3 -7 -11 -7 -17 0 -6 5 -4 10 4 8 12 13 13 30 2 11 -7
20 -8 20 -3 0 16 -41 27 -53 14z"/>
<path d="M81 968 c0 -19 2 -20 7 -6 5 13 11 15 22 8 8 -5 20 -10 25 -9 11 0
-35 28 -47 29 -5 0 -8 -10 -7 -22z"/>
<path d="M110 930 c-12 -7 -10 -9 7 -7 12 0 19 5 17 9 -6 10 -6 10 -24 -2z"/>
<path d="M83 920 c2 -8 12 -16 23 -17 13 -2 15 -1 4 4 -8 3 -19 11 -23 17 -6
7 -7 6 -4 -4z"/>
<path d="M80 874 c0 -8 32 -33 41 -34 4 0 9 9 12 20 4 17 0 20 -24 20 -16 0
-29 -3 -29 -6z m40 -14 c0 -5 -2 -10 -4 -10 -3 0 -8 5 -11 10 -3 6 -1 10 4 10
6 0 11 -4 11 -10z"/>
<path d="M87 823 c-4 -3 -7 -13 -7 -22 1 -13 2 -13 11 2 10 18 12 18 30 1 10
-9 19 -14 19 -9 0 8 -31 34 -41 35 -3 0 -9 -3 -12 -7z"/>
<path d="M110 772 c0 -5 7 -9 15 -9 8 0 15 4 15 9 0 4 -7 8 -15 8 -8 0 -15 -4
-15 -8z"/>
<path d="M89 758 c7 -10 23 -17 35 -17 20 1 20 2 1 6 -11 3 -27 10 -35 17 -13
10 -13 9 -1 -6z"/>
<path d="M98 713 c6 -2 18 -2 25 0 6 3 1 5 -13 5 -14 0 -19 -2 -12 -5z"/>
<path d="M108 693 c7 -3 16 -2 19 1 4 3 -2 6 -13 5 -11 0 -14 -3 -6 -6z"/>
<path d="M93 643 c15 -2 37 -2 50 0 12 2 0 4 -28 4 -27 0 -38 -2 -22 -4z"/>
<path d="M115 590 c-11 -5 -15 -9 -10 -10 6 -1 -1 -6 -15 -10 -23 -7 -22 -8
10 -9 29 -1 36 3 36 19 0 11 0 20 -1 19 0 0 -9 -4 -20 -9z"/>
<path d="M100 528 c0 -4 9 -8 20 -8 11 0 20 4 20 8 0 4 -9 8 -20 8 -11 0 -20
-4 -20 -8z"/>
<path d="M108 493 c6 -2 18 -2 25 0 6 3 1 5 -13 5 -14 0 -19 -2 -12 -5z"/>
<path d="M106 468 c3 -4 12 -8 20 -8 8 0 14 4 14 8 0 4 -9 8 -19 8 -11 0 -17
-4 -15 -8z"/>
<path d="M90 439 c0 -5 11 -9 25 -9 33 0 33 15 0 16 -14 1 -25 -2 -25 -7z"/>
<path d="M106 404 c-3 -8 -10 -12 -16 -9 -5 3 -10 1 -10 -4 0 -17 27 -13 34 5
3 8 10 12 16 9 5 -3 10 -1 10 4 0 17 -27 13 -34 -5z"/>
<path d="M108 313 c6 -2 18 -2 25 0 6 3 1 5 -13 5 -14 0 -19 -2 -12 -5z"/>
<path d="M100 276 c0 -8 -8 -17 -17 -19 -10 -3 -1 -5 20 -6 31 -1 37 2 37 19
0 13 -7 20 -20 20 -11 0 -20 -6 -20 -14z m30 -6 c0 -5 -4 -10 -10 -10 -5 0
-10 5 -10 10 0 6 5 10 10 10 6 0 10 -4 10 -10z"/>
<path d="M106 232 c-2 -4 4 -8 14 -8 10 0 16 4 14 8 -3 4 -9 8 -14 8 -5 0 -11
-4 -14 -8z"/>
<path d="M88 173 c12 -2 30 -2 40 0 9 3 -1 5 -23 4 -22 0 -30 -2 -17 -4z"/>
<path d="M106 148 c7 -10 34 -10 34 0 0 4 -9 8 -19 8 -11 0 -17 -4 -15 -8z"/>
<path d="M101 119 c-27 -11 -20 -23 19 -34 17 -5 22 -4 15 3 -5 5 -19 12 -30
15 -18 4 -18 5 2 6 12 0 25 6 28 11 8 12 -2 12 -34 -1z"/>
</g>
</svg>
